<?xml version="1.0" standalone="no"?>
<!DOCTYPE svg PUBLIC "-//W3C//DTD SVG 20010904//EN"
 "http://www.w3.org/TR/2001/REC-SVG-20010904/DTD/svg10.dtd">
<svg version="1.0" xmlns="http://www.w3.org/2000/svg"
 width="64.000000pt" height="64.000000pt" viewBox="0 0 64.000000 64.000000"
 preserveAspectRatio="xMidYMid meet">

<g transform="translate(0.000000,64.000000) scale(0.100000,-0.100000)"
fill="#000000" stroke="none">
<path d="M265 581 c-126 -33 -209 -136 -209 -261 0 -149 115 -264 264 -264
281 0 366 376 114 502 -47 24 -125 34 -169 23z m168 -83 c22 -14 51 -43 65
-65 23 -33 27 -48 27 -113 0 -65 -4 -80 -27 -113 -14 -22 -43 -51 -65 -65 -33
-23 -48 -27 -113 -27 -65 0 -80 4 -113 27 -61 41 -91 93 -95 164 -6 92 36 165
120 208 51 26 152 18 201 -16z"/>
<path d="M270 422 c-79 -39 -77 -166 3 -206 34 -16 42 -17 75 -4 20 7 42 25
49 38 11 23 10 25 -9 28 -12 2 -27 -2 -32 -10 -18 -23 -42 -27 -65 -11 -31 21
-27 109 6 130 20 14 24 13 48 -11 22 -22 65 -36 65 -22 0 26 -26 60 -55 71
-43 19 -43 19 -85 -3z"/>
</g>
</svg>
