<?xml version="1.0" standalone="no"?>
<!DOCTYPE svg PUBLIC "-//W3C//DTD SVG 20010904//EN"
 "http://www.w3.org/TR/2001/REC-SVG-20010904/DTD/svg10.dtd">
<svg version="1.0" xmlns="http://www.w3.org/2000/svg"
 width="64.000000pt" height="64.000000pt" viewBox="0 0 64.000000 64.000000"
 preserveAspectRatio="xMidYMid meet">

<g transform="translate(0.000000,64.000000) scale(0.100000,-0.100000)"
fill="#000000" stroke="none">
<path d="M227 596 c-94 -35 -164 -110 -188 -201 -26 -96 13 -231 84 -291 64
-54 106 -69 197 -69 68 0 93 5 126 22 63 34 97 66 129 125 27 47 30 63 30 138
0 75 -3 91 -30 138 -52 95 -130 143 -240 149 -44 2 -84 -2 -108 -11z m10 -127
c15 -6 55 -11 88 -11 33 0 73 5 88 11 16 6 30 11 32 11 1 0 6 -18 9 -40 3 -22
9 -57 12 -77 8 -55 -9 -91 -53 -111 l-38 -17 3 -58 3 -58 -53 3 c-45 3 -53 6
-56 24 -2 16 -12 24 -37 28 -24 5 -39 16 -54 41 -16 27 -17 35 -6 35 8 0 20
-8 27 -18 20 -28 45 -33 64 -15 15 16 14 18 -16 28 -52 17 -73 51 -66 105 9
75 18 130 21 130 2 0 16 -5 32 -11z"/>
</g>
</svg>
