<?xml version="1.0" standalone="no"?>
<!DOCTYPE svg PUBLIC "-//W3C//DTD SVG 20010904//EN"
 "http://www.w3.org/TR/2001/REC-SVG-20010904/DTD/svg10.dtd">
<svg version="1.0" xmlns="http://www.w3.org/2000/svg"
 width="64.000000pt" height="64.000000pt" viewBox="0 0 64.000000 64.000000"
 preserveAspectRatio="xMidYMid meet">

<g transform="translate(0.000000,64.000000) scale(0.100000,-0.100000)"
fill="#000000" stroke="none">
<path d="M213 589 c-145 -56 -218 -224 -162 -374 72 -192 326 -246 473 -99
220 220 -20 585 -311 473z m37 -144 c0 -15 -7 -26 -20 -30 -41 -13 -70 43 -33
64 25 13 53 -5 53 -34z m213 -77 c13 -15 17 -39 17 -100 l0 -79 -32 3 -33 3
-3 68 c-2 48 -7 70 -18 74 -29 11 -44 -17 -44 -83 l0 -64 -35 0 -35 0 0 100 0
100 35 0 c19 0 35 -5 35 -11 0 -5 10 -3 23 6 27 19 65 12 90 -17z m-213 -78
l0 -100 -35 0 -35 0 0 100 0 100 35 0 35 0 0 -100z"/>
</g>
</svg>
